<svg id="Layer_1" data-name="Layer 1" xmlns="http://www.w3.org/2000/svg" viewBox="0 0 236.95 39.44"><defs><style>.cls-1{fill:#3950a2;}.cls-2{fill:#231f20;}.cls-3{fill:#fff;}</style></defs><title>AwesomeInc_Logo</title><rect class="cls-1" width="39.44" height="39.44" rx="5" ry="5"/><path class="cls-2" d="M198.22,51.81h1.42l4.68-14h4.9l4.68,14h1.42v3.12h-7.18V51.81h1.49L209,49.53h-4.42l-.65,2.28h1.49v3.12h-7.18ZM208,46.26l-.89-3.17a10,10,0,0,1-.34-1.8h-.1a10,10,0,0,1-.34,1.8l-.91,3.17Z" transform="translate(-153.1 -33.3)"/><path class="cls-2" d="M215,37.76h7.61v3.12h-2l1.58,7.61a14.38,14.38,0,0,1,.22,1.8h.1a12,12,0,0,1,.29-1.8l2.64-10.73h3.31l2.64,10.73a12,12,0,0,1,.29,1.8h.1a14.38,14.38,0,0,1,.22-1.8l1.58-7.61h-2V37.76h7.61v3.12h-1.44l-3.41,14h-4.73l-2.18-8.78a12.42,12.42,0,0,1-.29-1.9h-.1a12.42,12.42,0,0,1-.29,1.9l-2.18,8.78h-4.73l-3.41-14H215Z" transform="translate(-153.1 -33.3)"/><path class="cls-2" d="M240.67,51.81h1.92V40.88h-1.92V37.76H253.9v5.06h-3.6v-1.7h-3.41V44.6h5V48h-5v3.6h3.7v-1.7h3.6v5.06H240.67Z" transform="translate(-153.1 -33.3)"/><path class="cls-2" d="M260.11,48.83V50.1c0,.89,1.13,1.39,2.47,1.39s2.3-.48,2.3-1.39c0-1.32-1.9-1.73-3.7-2.45-2.33-.89-4.51-2-4.51-5.16,0-3.82,3.12-5,6.17-5s5.83,1.1,5.83,3.29v2.54h-3.84V42.23c0-.67-.91-1-2-1s-1.85.29-1.85,1.18c0,1.18,1.42,1.68,3,2.23,2.62.91,5.23,2,5.23,5.23,0,3.91-3.36,5.38-6.62,5.38s-6.31-1.42-6.31-4.18V48.83Z" transform="translate(-153.1 -33.3)"/><path class="cls-2" d="M280,37.48a8.69,8.69,0,0,1,9,8.76,9,9,0,0,1-18,0A8.69,8.69,0,0,1,280,37.48Zm0,14c2.52,0,4.58-2.26,4.58-5.26a4.6,4.6,0,1,0-9.17,0C275.4,49.24,277.46,51.49,280,51.49Z" transform="translate(-153.1 -33.3)"/><path class="cls-2" d="M290.54,51.81h1.87l.91-10.92h-1.92V37.76h6.74l2.88,8.5a12.34,12.34,0,0,1,.48,1.78h0a12.34,12.34,0,0,1,.48-1.78l2.88-8.5h6.74v3.12h-1.92l.91,10.92h1.87v3.12h-7.78V51.81h1.71L306,45.64a13.6,13.6,0,0,1,.1-1.92H306a13.2,13.2,0,0,1-.46,1.82l-2.26,6.26h-3.6l-2.26-6.26a13.2,13.2,0,0,1-.46-1.82h-.1a13.6,13.6,0,0,1,.1,1.92l-.41,6.17h1.7v3.12h-7.78Z" transform="translate(-153.1 -33.3)"/><path class="cls-2" d="M314.54,51.81h1.92V40.88h-1.92V37.76h13.23v5.06h-3.6v-1.7h-3.41V44.6h5V48h-5v3.6h3.7v-1.7h3.6v5.06H314.54Z" transform="translate(-153.1 -33.3)"/><path class="cls-2" d="M331.15,50.94h4l-2.71,6.65h-3Z" transform="translate(-153.1 -33.3)"/><path class="cls-2" d="M343.34,51.81h1.92V40.88h-1.92V37.76h8.14v3.12h-1.92V51.81h1.92v3.12h-8.14Z" transform="translate(-153.1 -33.3)"/><path class="cls-2" d="M353.83,51.81h1.92V40.88h-1.92V37.76h6.26l5.38,9.1a9.53,9.53,0,0,1,.72,1.75h.1s-.14-1.15-.14-1.92V40.88h-2V37.76h8.23v3.12h-1.92v14h-4.32l-5.4-9a9.53,9.53,0,0,1-.72-1.75h-.1S360,45.28,360,46v5.76h2v3.12h-8.23Z" transform="translate(-153.1 -33.3)"/><path class="cls-2" d="M382.92,37.48c2.09,0,6.94.67,6.94,3.43v2.71H386V42.3c0-1-1.75-1.22-2.9-1.22-2.79,0-4.73,1.8-4.73,5,0,3.55,2.11,5.54,5,5.54.77,0,2.86-.19,2.86-1.22V49.07H390v2.76c0,2.62-4.63,3.38-7,3.38a8.8,8.8,0,0,1-9.1-8.9A8.71,8.71,0,0,1,382.92,37.48Z" transform="translate(-153.1 -33.3)"/><path class="cls-2" d="M198.61,68.85h1.14V61.41h-1.14v-.48h2.79v.48h-1.14v7.44H204V67.41h.5v1.92h-5.9Z" transform="translate(-153.1 -33.3)"/><path class="cls-2" d="M205.45,68.86h1.08V63.8h-1.14v-.47H207v5.53h1.08v.47h-2.66Zm1-7.93h.65v.88h-.65Z" transform="translate(-153.1 -33.3)"/><path class="cls-2" d="M209.59,61.4h-1.14v-.47h1.64V64a2.53,2.53,0,0,1,0,.49h0a2.29,2.29,0,0,1,2.17-1.36c1.61,0,2.59,1.28,2.59,3.14s-1.12,3.14-2.69,3.14a2.32,2.32,0,0,1-2.07-1.35h0a2.69,2.69,0,0,1,0,.53v.68h-.5ZM212.17,69c1.18,0,2.13-1,2.13-2.65s-.86-2.65-2.09-2.65-2.14.78-2.14,2.66C210.08,67.67,210.77,69,212.17,69Z" transform="translate(-153.1 -33.3)"/><path class="cls-2" d="M219,63.19a2.47,2.47,0,0,1,2.45,2.73c0,.13,0,.32,0,.32h-4.81A2.53,2.53,0,0,0,219.19,69a2.72,2.72,0,0,0,1.86-.76l.28.42a3.27,3.27,0,0,1-2.14.83,3,3,0,0,1-3.09-3.13A2.92,2.92,0,0,1,219,63.19Zm1.92,2.59A1.94,1.94,0,0,0,219,63.65a2.33,2.33,0,0,0-2.34,2.12Z" transform="translate(-153.1 -33.3)"/><path class="cls-2" d="M222.67,68.86h1v-4.8a.23.23,0,0,0-.26-.26h-.88v-.47h.95c.49,0,.7.2.7.66v.42c0,.28,0,.49,0,.49h0a2.05,2.05,0,0,1,1.9-1.62,1.88,1.88,0,0,1,.35,0v.5a2,2,0,0,0-.28,0c-1.4,0-2,1.71-2,2.94v2.12h1v.47h-2.42Z" transform="translate(-153.1 -33.3)"/><path class="cls-2" d="M227.88,63.8h-1.14v-.47h1.14V61.66h.5v1.67H230v.47h-1.57v3.32c0,1.58.95,1.79,1.43,1.79a1.43,1.43,0,0,0,.28,0v.47a1.72,1.72,0,0,1-.3,0c-.62,0-1.91-.23-1.91-2.22Z" transform="translate(-153.1 -33.3)"/><path class="cls-2" d="M231.83,71.37c.58,0,.95-.52,1.19-1.08l.41-1-2.18-5.5h-.82v-.47h2.31v.47h-.95l1.79,4.57a1.69,1.69,0,0,1,.1.33h0a2.6,2.6,0,0,1,.11-.33l1.79-4.57h-.95v-.47H237v.47h-.83l-2.71,6.79a1.79,1.79,0,0,1-1.6,1.26,1.66,1.66,0,0,1-1-.32l.23-.44A1.29,1.29,0,0,0,231.83,71.37Z" transform="translate(-153.1 -33.3)"/><path class="cls-2" d="M244.28,65.67h.4V65.4c0-1.28-.66-1.74-1.6-1.74a3,3,0,0,0-1.76.59l-.29-.41a3.3,3.3,0,0,1,2.06-.66c1.38,0,2.09.74,2.09,2.21v3.2a.23.23,0,0,0,.26.26h.72v.47h-.79c-.49,0-.7-.2-.7-.66v-.13a2.74,2.74,0,0,1,0-.54h0a2.32,2.32,0,0,1-2.12,1.47,1.83,1.83,0,0,1-2-1.77C240.56,65.7,243.25,65.67,244.28,65.67ZM242.58,69a2.33,2.33,0,0,0,2.1-2.54v-.32h-.38c-.44,0-3.2-.11-3.2,1.5A1.38,1.38,0,0,0,242.58,69Z" transform="translate(-153.1 -33.3)"/><path class="cls-2" d="M247,68.86h1.08v-4.8a.23.23,0,0,0-.26-.26h-.88v-.47h.95c.49,0,.7.2.7.66v.4a2.5,2.5,0,0,1,0,.49h0a2.76,2.76,0,0,1,2.54-1.69c1.56,0,2,.92,2,2.34v3.33h1.08v.47h-1.58V65.7c0-1-.13-2-1.48-2a2.59,2.59,0,0,0-2.52,2.67v2.51h1.08v.47H247Z" transform="translate(-153.1 -33.3)"/><path class="cls-2" d="M257.72,63.19a2.31,2.31,0,0,1,2.07,1.32h0a2.52,2.52,0,0,1,0-.49V61.4h-1.14v-.47h1.64v7.66a.23.23,0,0,0,.26.26h.72v.47h-.79c-.49,0-.7-.2-.7-.66v-.13a1.46,1.46,0,0,1,0-.42h0a2.29,2.29,0,0,1-2.17,1.35c-1.61,0-2.59-1.28-2.59-3.14S256.15,63.19,257.72,63.19ZM257.65,69c1.1,0,2.14-.78,2.14-2.66,0-1.33-.68-2.64-2.09-2.64-1.18,0-2.13,1-2.13,2.65S256.43,69,257.65,69Z" transform="translate(-153.1 -33.3)"/><path class="cls-2" d="M265.29,68.85h1.14V61.41h-1.14v-.48h2.79v.48h-1.14v3.47h5.33V61.41h-1.14v-.48h2.79v.48h-1.14v7.44h1.14v.48h-2.79v-.48h1.14V65.36h-5.33v3.49h1.14v.48h-2.79Z" transform="translate(-153.1 -33.3)"/><path class="cls-2" d="M277.88,63.19a2.46,2.46,0,0,1,2.45,2.73c0,.13,0,.32,0,.32h-4.81A2.53,2.53,0,0,0,278.06,69a2.72,2.72,0,0,0,1.86-.76l.28.42a3.27,3.27,0,0,1-2.13.83A3,3,0,0,1,275,66.34,2.92,2.92,0,0,1,277.88,63.19Zm1.92,2.59a1.94,1.94,0,0,0-1.93-2.12,2.33,2.33,0,0,0-2.34,2.12Z" transform="translate(-153.1 -33.3)"/><path class="cls-2" d="M285.15,65.67h.4V65.4c0-1.28-.66-1.74-1.59-1.74a3,3,0,0,0-1.76.59l-.29-.41a3.3,3.3,0,0,1,2.06-.66c1.38,0,2.09.74,2.09,2.21v3.2a.23.23,0,0,0,.26.26H287v.47h-.79c-.49,0-.7-.2-.7-.66v-.13a2.74,2.74,0,0,1,0-.54h0a2.32,2.32,0,0,1-2.12,1.47,1.83,1.83,0,0,1-2-1.77C281.43,65.7,284.12,65.67,285.15,65.67ZM283.45,69a2.33,2.33,0,0,0,2.1-2.54v-.32h-.38c-.44,0-3.2-.11-3.2,1.5A1.38,1.38,0,0,0,283.45,69Z" transform="translate(-153.1 -33.3)"/><path class="cls-2" d="M288.43,61.4H287.3v-.47h1.63v7c0,.47.13.92.71.92a2.19,2.19,0,0,0,.36,0v.47a4.11,4.11,0,0,1-.43,0c-.71,0-1.13-.42-1.13-1.34Z" transform="translate(-153.1 -33.3)"/><path class="cls-2" d="M291.66,63.8h-1.14v-.47h1.14V61.66h.5v1.67h1.57v.47h-1.57v3.32c0,1.58.95,1.79,1.43,1.79a1.42,1.42,0,0,0,.28,0v.47a1.73,1.73,0,0,1-.3,0c-.62,0-1.91-.23-1.91-2.22Z" transform="translate(-153.1 -33.3)"/><path class="cls-2" d="M294.44,68.86h1.08V61.4h-1.14v-.47H296v3.45a2.52,2.52,0,0,1,0,.49h0a2.77,2.77,0,0,1,2.54-1.69c1.56,0,2,.92,2,2.34v3.33h1.08v.47H300V65.7c0-1-.13-2-1.48-2A2.58,2.58,0,0,0,296,66.4v2.46h1.08v.47h-2.66Z" transform="translate(-153.1 -33.3)"/><path class="cls-2" d="M309.76,60.79c1,0,3.06.4,3.06,1.67v.79h-.53v-.67c0-.92-1.58-1.29-2.52-1.29a3.67,3.67,0,0,0-3.69,3.79A3.76,3.76,0,0,0,309.81,69c.75,0,2.61-.31,2.61-1.28V67H313v.78c0,1.2-2,1.65-3.14,1.65a4.26,4.26,0,0,1-4.27-4.4A4.17,4.17,0,0,1,309.76,60.79Z" transform="translate(-153.1 -33.3)"/><path class="cls-2" d="M317.94,65.67h.4V65.4c0-1.28-.66-1.74-1.59-1.74a3,3,0,0,0-1.76.59l-.29-.41a3.3,3.3,0,0,1,2.06-.66c1.38,0,2.09.74,2.09,2.21v3.2a.23.23,0,0,0,.26.26h.72v.47H319c-.49,0-.7-.2-.7-.66v-.13a2.74,2.74,0,0,1,0-.54h0a2.32,2.32,0,0,1-2.12,1.47,1.83,1.83,0,0,1-2-1.77C314.22,65.7,316.9,65.67,317.94,65.67ZM316.23,69a2.33,2.33,0,0,0,2.1-2.54v-.32h-.38c-.44,0-3.2-.11-3.2,1.5A1.38,1.38,0,0,0,316.23,69Z" transform="translate(-153.1 -33.3)"/><path class="cls-2" d="M320.73,68.86h1v-4.8a.23.23,0,0,0-.26-.26h-.88v-.47h.95c.49,0,.7.2.7.66v.42a4.87,4.87,0,0,1,0,.49h0a2.05,2.05,0,0,1,1.89-1.62,1.87,1.87,0,0,1,.35,0v.5a2,2,0,0,0-.28,0c-1.4,0-2,1.71-2,2.94v2.12h1v.47h-2.42Z" transform="translate(-153.1 -33.3)"/><path class="cls-2" d="M328,63.19a2.46,2.46,0,0,1,2.45,2.73c0,.13,0,.32,0,.32h-4.81A2.53,2.53,0,0,0,328.21,69a2.72,2.72,0,0,0,1.86-.76l.28.42a3.27,3.27,0,0,1-2.13.83,3,3,0,0,1-3.09-3.13A2.92,2.92,0,0,1,328,63.19Zm1.92,2.59A1.94,1.94,0,0,0,328,63.65a2.33,2.33,0,0,0-2.34,2.12Z" transform="translate(-153.1 -33.3)"/><path class="cls-2" d="M334.62,68.86h1.08V63.8h-1.14v-.47h1.14V63c0-1.88,1.22-2.11,1.78-2.11a2.29,2.29,0,0,1,.43,0v.47a1.94,1.94,0,0,0-.4,0c-.43,0-1.31.18-1.31,1.63v.34h1.59v.47H336.2v5.06h1.26v.47h-2.84Z" transform="translate(-153.1 -33.3)"/><path class="cls-2" d="M341.66,63.19a3.08,3.08,0,0,1,3.11,3.11,3.11,3.11,0,1,1-6.21,0A3.08,3.08,0,0,1,341.66,63.19Zm0,5.79a2.61,2.61,0,0,0,2.58-2.69,2.58,2.58,0,1,0-5.16,0A2.61,2.61,0,0,0,341.66,69Z" transform="translate(-153.1 -33.3)"/><path class="cls-2" d="M345.92,68.86h1v-4.8a.23.23,0,0,0-.26-.26h-.88v-.47h.95c.49,0,.7.2.7.66v.42a4.87,4.87,0,0,1,0,.49h0a2.05,2.05,0,0,1,1.89-1.62,1.87,1.87,0,0,1,.35,0v.5a2,2,0,0,0-.28,0c-1.4,0-2,1.71-2,2.94v2.12h1v.47h-2.42Z" transform="translate(-153.1 -33.3)"/><path class="cls-2" d="M352.91,68.85h.9l3-7.92h.55l3,7.92h.9v.48h-2.47v-.48h1l-.91-2.42h-3.56l-.9,2.42h1v.48h-2.47Zm5.73-2.9L357.17,62a2.45,2.45,0,0,1-.12-.46h0a2.45,2.45,0,0,1-.12.46l-1.48,3.92Z" transform="translate(-153.1 -33.3)"/><path class="cls-2" d="M362.36,61.4h-1.13v-.47h1.63v7c0,.47.13.92.71.92a2.19,2.19,0,0,0,.36,0v.47a4.11,4.11,0,0,1-.43,0c-.71,0-1.13-.42-1.13-1.34Z" transform="translate(-153.1 -33.3)"/><path class="cls-2" d="M365.34,61.4h-1.13v-.47h1.63v7c0,.47.13.92.71.92a2.19,2.19,0,0,0,.36,0v.47a4.11,4.11,0,0,1-.43,0c-.71,0-1.13-.42-1.13-1.34Z" transform="translate(-153.1 -33.3)"/><path class="cls-3" d="M187,64.13a5,5,0,0,1-1.47,3.82,5.44,5.44,0,0,1-3.9,1.39H164a5.44,5.44,0,0,1-3.9-1.39,5,5,0,0,1-1.47-3.82q0-1.37.11-2.63a18.23,18.23,0,0,1,.48-2.77,12.58,12.58,0,0,1,1-2.66A6.83,6.83,0,0,1,161.85,54a5.35,5.35,0,0,1,2.41-1.22,6.14,6.14,0,0,0-.44,2.41v4.08A3.7,3.7,0,0,0,162,60.67a3.8,3.8,0,0,0-.7,2.23,3.86,3.86,0,1,0,7.71,0,3.87,3.87,0,0,0-2.57-3.64V55.19a2.93,2.93,0,0,1,.5-1.87,9.45,9.45,0,0,0,11.85,0,2.93,2.93,0,0,1,.5,1.87v1.29a5.14,5.14,0,0,0-5.14,5.14v1.79a1.93,1.93,0,1,0,2.57,0V61.62a2.57,2.57,0,0,1,5.14,0v1.79a1.93,1.93,0,1,0,2.57,0V61.62a5.15,5.15,0,0,0-2.57-4.44q0-.2,0-.85t0-1c0-.21,0-.48-.05-.83a6,6,0,0,0-.14-.94,5.24,5.24,0,0,0-.26-.8A5.35,5.35,0,0,1,183.79,54a6.83,6.83,0,0,1,1.63,2.07,12.68,12.68,0,0,1,1,2.66,18.34,18.34,0,0,1,.48,2.77Q187,62.76,187,64.13ZM166,62a1.26,1.26,0,1,1-.9-.38A1.24,1.24,0,0,1,166,62Zm12.26-21.26a7.71,7.71,0,1,1-5.45-2.26A7.43,7.43,0,0,1,178.27,40.74Z" transform="translate(-153.1 -33.3)"/></svg>